<svg xmlns="http://www.w3.org/2000/svg" viewBox="0 0 64 64">
  <defs>
    <linearGradient id="bg" x1="0" y1="0" x2="1" y2="1">
      <stop offset="0%" stop-color="#6366f1"/>
      <stop offset="100%" stop-color="#0ea5e9"/>
    </linearGradient>
    <linearGradient id="coin" x1="0" y1="0" x2="0" y2="1">
      <stop offset="0%" stop-color="#fbbf24"/>
      <stop offset="100%" stop-color="#f59e0b"/>
    </linearGradient>
  </defs>
  <rect width="64" height="64" rx="14" fill="url(#bg)"/>
  <path d="M14 22 H46 a4 4 0 0 1 4 4 v16 a4 4 0 0 1 -4 4 H18 a4 4 0 0 1 -4 -4 Z" fill="#ffffff"/>
  <path d="M14 22 H46 a4 4 0 0 1 4 4 v3 H14 Z" fill="#e0e7ff"/>
  <circle cx="40" cy="34" r="4" fill="url(#coin)"/>
  <text x="40" y="37.5" text-anchor="middle" font-family="Arial, sans-serif" font-size="6" font-weight="bold" fill="#ffffff">Rp</text>
  <path d="M22 32 H30" stroke="#6366f1" stroke-width="2" stroke-linecap="round"/>
  <path d="M22 38 H34" stroke="#6366f1" stroke-width="2" stroke-linecap="round" opacity="0.6"/>
</svg>
